<?xml version="1.0" encoding="UTF-8" standalone="no"?>
<!-- Created with Inkscape (http://www.inkscape.org/) -->

<svg
   xmlns:osb="http://www.openswatchbook.org/uri/2009/osb"
   xmlns:dc="http://purl.org/dc/elements/1.1/"
   xmlns:cc="http://creativecommons.org/ns#"
   xmlns:rdf="http://www.w3.org/1999/02/22-rdf-syntax-ns#"
   xmlns:svg="http://www.w3.org/2000/svg"
   xmlns="http://www.w3.org/2000/svg"
   xmlns:xlink="http://www.w3.org/1999/xlink"
   xmlns:sodipodi="http://sodipodi.sourceforge.net/DTD/sodipodi-0.dtd"
   xmlns:inkscape="http://www.inkscape.org/namespaces/inkscape"
   width="512"
   height="512"
   viewBox="0 0 135.46666 135.46667"
   version="1.1"
   id="svg1623"
   inkscape:version="0.92.3 (2405546, 2018-03-11)"
   sodipodi:docname="logo _Sifu_Francis.svg">
  <defs
     id="defs1617">
    <linearGradient
       id="linearGradient4554"
       osb:paint="solid">
      <stop
         style="stop-color:#000000;stop-opacity:1;"
         offset="0"
         id="stop4552" />
    </linearGradient>
    <linearGradient
       inkscape:collect="always"
       id="linearGradient4546"
       osb:paint="gradient">
      <stop
         style="stop-color:#000000;stop-opacity:1;"
         offset="0"
         id="stop4542" />
      <stop
         style="stop-color:#000000;stop-opacity:0;"
         offset="1"
         id="stop4544" />
    </linearGradient>
    <linearGradient
       id="linearGradient4272"
       osb:paint="solid">
      <stop
         style="stop-color:#000000;stop-opacity:1;"
         offset="0"
         id="stop4270" />
    </linearGradient>
    <linearGradient
       inkscape:collect="always"
       id="linearGradient2755">
      <stop
         style="stop-color:#ffffff;stop-opacity:1"
         offset="0"
         id="stop2751" />
      <stop
         style="stop-color:#00ff00;stop-opacity:1"
         offset="1"
         id="stop2753" />
    </linearGradient>
    <linearGradient
       inkscape:collect="always"
       id="linearGradient2745">
      <stop
         style="stop-color:#000000;stop-opacity:1;"
         offset="0"
         id="stop2741" />
      <stop
         style="stop-color:#000000;stop-opacity:0;"
         offset="1"
         id="stop2743" />
    </linearGradient>
    <linearGradient
       inkscape:collect="always"
       xlink:href="#linearGradient2755"
       id="linearGradient2757"
       x1="50.48777"
       y1="247.32619"
       x2="64.066971"
       y2="207.79759"
       gradientUnits="userSpaceOnUse" />
    <linearGradient
       inkscape:collect="always"
       xlink:href="#linearGradient2745"
       id="linearGradient4558"
       gradientUnits="userSpaceOnUse"
       x1="113.01488"
       y1="170.56694"
       x2="16.441963"
       y2="288.68451" />
  </defs>
  <sodipodi:namedview
     id="base"
     pagecolor="#ffffff"
     bordercolor="#666666"
     borderopacity="1.0"
     inkscape:pageopacity="0.0"
     inkscape:pageshadow="2"
     inkscape:zoom="1.29"
     inkscape:cx="272.87987"
     inkscape:cy="253.94868"
     inkscape:document-units="px"
     inkscape:current-layer="layer1"
     showgrid="false"
     units="px"
     inkscape:showpageshadow="false"
     inkscape:window-width="1920"
     inkscape:window-height="1001"
     inkscape:window-x="-9"
     inkscape:window-y="-9"
     inkscape:window-maximized="1" />
  <metadata
     id="metadata1620">
    <rdf:RDF>
      <cc:Work
         rdf:about="">
        <dc:format>image/svg+xml</dc:format>
        <dc:type
           rdf:resource="http://purl.org/dc/dcmitype/StillImage" />
        <dc:title></dc:title>
      </cc:Work>
    </rdf:RDF>
  </metadata>
  <g
     inkscape:label="Calque 1"
     inkscape:groupmode="layer"
     id="layer1"
     transform="translate(0,-161.53331)">
    <path
       sodipodi:type="star"
       style="opacity:1;fill:#a7f90f;fill-opacity:1;stroke:#000000;stroke-width:0.43413222;stroke-miterlimit:4;stroke-dasharray:none;stroke-opacity:1"
       id="path2726"
       sodipodi:sides="6"
       sodipodi:cx="65.956848"
       sodipodi:cy="222.16071"
       sodipodi:r1="53.902706"
       sodipodi:r2="43.483147"
       sodipodi:arg1="0.74323954"
       sodipodi:arg2="-1.8214143"
       inkscape:flatsided="false"
       inkscape:rounded="0.0652004"
       inkscape:randomized="0"
       d="m 105.64435,258.63541 c 4.35425,-4.2582 -44.660278,-80.4221 -50.471438,-78.59941 -5.8938,1.84861 -6.90857,93.0673 -0.960333,94.73244 5.864834,1.6418 47.317441,-78.88798 42.833365,-83.00925 -4.54784,-4.17988 -84.052928,40.55065 -82.520866,46.53455 1.51058,5.89999 91.977712,1.53411 93.304802,-4.40985 1.34596,-6.02848 -77.144358,-52.51664 -81.560533,-48.19789 -4.354253,4.2582 44.660278,80.4221 50.471438,78.59941 5.893799,-1.84861 6.908569,-93.0673 0.960333,-94.73244 -5.864834,-1.6418 -47.317439,78.88798 -42.833366,83.00925 4.547841,4.17988 84.052928,-40.55065 82.520868,-46.53455 -1.51058,-5.89999 -91.977718,-1.53411 -93.304805,4.40985 -1.345959,6.02848 77.144355,52.51664 81.560535,48.19789 z"
       transform="matrix(0.96158431,-0.57305863,0.60663833,1.0179306,-130.46094,40.919603)" />
    <g
       style="fill:url(#linearGradient4558);fill-opacity:1;stroke:#000000;stroke-width:0.5;stroke-miterlimit:4;stroke-dasharray:none;stroke-opacity:1;paint-order:fill markers stroke"
       id="g4389"
       transform="rotate(-17.484269,66.160021,238.56435)">
      <path
         sodipodi:nodetypes="sssss"
         id="path2730"
         d="m 104.38207,228.49106 c 0,11.3769 -5.269062,30.63587 -25.765754,30.64808 -10.538167,0.006 -55.707462,-18.60799 -51.510657,-38.22154 3.543185,-16.5589 22.993505,-32.46971 37.24479,-13.49798 11.127196,14.81285 40.031621,9.69454 40.031621,21.07144 z"
         style="opacity:1;fill:url(#linearGradient2757);fill-opacity:1;stroke:#000000;stroke-width:0.5;stroke-miterlimit:4;stroke-dasharray:none;stroke-opacity:1;paint-order:fill markers stroke"
         inkscape:connector-curvature="0" />
    </g>
    <path
       inkscape:connector-curvature="0"
       id="path2805"
       style="font-style:normal;font-variant:normal;font-weight:bold;font-stretch:normal;font-size:12.69999981px;line-height:1.25;font-family:'Segoe Print';-inkscape-font-specification:'Segoe Print Bold';letter-spacing:0px;word-spacing:0px;fill:#ffffff;fill-opacity:1;stroke:#000000;stroke-width:0.26458332;stroke-opacity:1"
       d="m 40.158554,221.40097 -2.344043,2.07119 2.59209,1.95958 q 0.316259,0.24184 0.613916,0.42788 l 0.291455,0.19223 q 0.334863,0.19844 1.37666,0.27285 0.07441,0.24185 0.07441,0.35347 0,0.42788 -0.248047,0.70693 -0.248047,0.27286 -0.731738,0.27286 -0.63252,0 -1.686719,-0.76895 l -2.406055,-1.76113 q -0.818554,-0.61392 -1.203027,-0.78135 -0.279053,0.0806 -0.452686,2.0898 -0.07441,0.79995 -0.260449,1.16582 -0.186035,0.37207 -0.613916,0.37207 -0.359668,0 -0.551904,-0.21705 -0.192236,-0.21084 -0.192236,-0.5519 0,-0.14883 0.06201,-0.42168 0.142627,-0.60771 0.508496,-4.31601 0.328663,-3.1254 0.545704,-3.58428 0.223242,-0.46509 0.68833,-0.46509 0.781347,0 0.781347,0.86816 -0.390674,1.59991 -0.564306,3.6773 0.880566,-0.66353 1.265039,-1.08521 0.148828,-0.14882 0.37207,-0.35966 0.434082,-0.40928 0.911572,-0.88057 0.47749,-0.47129 0.700733,-0.86816 0.316259,-0.57051 0.514697,-0.79996 0.198437,-0.23564 0.427881,-0.23564 0.260449,0 0.576709,0.26045 0.322461,0.26045 0.322461,0.58291 0,0.24184 -0.334864,0.72554 -0.334863,0.47749 -1.035595,1.0976 z" />
    <path
       inkscape:connector-curvature="0"
       id="path2807"
       style="font-style:normal;font-variant:normal;font-weight:bold;font-stretch:normal;font-size:12.69999981px;line-height:1.25;font-family:'Segoe Print';-inkscape-font-specification:'Segoe Print Bold';letter-spacing:0px;word-spacing:0px;fill:#ffffff;fill-opacity:1;stroke:#000000;stroke-width:0.26458332;stroke-opacity:1"
       d="m 49.274276,225.34492 q 0,0.64492 -1.085205,1.54409 -1.085205,0.89297 -2.449463,0.89297 -1.047998,0 -1.649511,-0.65732 -0.601514,-0.66353 -0.601514,-1.84175 0,-1.73633 1.227832,-3.25562 1.227832,-1.51929 2.623096,-1.51929 0.694531,0 1.116211,0.44029 0.421679,0.44028 0.421679,1.048 0,1.079 -1.035595,2.05879 -1.035596,0.97358 -2.654102,1.34565 -0.186035,0.0434 -0.186035,0.22324 0,0.29766 0.260449,0.57051 0.266651,0.26665 0.706934,0.26665 1.246435,0 2.474267,-1.28364 0.235645,-0.24805 0.458887,-0.24805 0.37207,0 0.37207,0.41548 z m -4.160986,-1.09761 q 0.979785,-0.19844 1.723926,-0.83716 0.750342,-0.63872 0.750342,-1.15962 0,-0.20463 -0.117823,-0.34106 -0.111621,-0.14263 -0.291455,-0.14263 -0.539502,0 -1.196826,0.79375 -0.657324,0.79375 -0.868164,1.68672 z" />
    <path
       inkscape:connector-curvature="0"
       id="path2809"
       style="font-style:normal;font-variant:normal;font-weight:bold;font-stretch:normal;font-size:12.69999981px;line-height:1.25;font-family:'Segoe Print';-inkscape-font-specification:'Segoe Print Bold';letter-spacing:0px;word-spacing:0px;fill:#ffffff;fill-opacity:1;stroke:#000000;stroke-width:0.26458332;stroke-opacity:1"
       d="m 55.847519,225.34492 q 0,0.64492 -1.085205,1.54409 -1.085206,0.89297 -2.449463,0.89297 -1.047998,0 -1.649512,-0.65732 -0.601514,-0.66353 -0.601514,-1.84175 0,-1.73633 1.227832,-3.25562 1.227832,-1.51929 2.623096,-1.51929 0.694531,0 1.116211,0.44029 0.42168,0.44028 0.42168,1.048 0,1.079 -1.035596,2.05879 -1.035596,0.97358 -2.654102,1.34565 -0.186035,0.0434 -0.186035,0.22324 0,0.29766 0.260449,0.57051 0.266651,0.26665 0.706934,0.26665 1.246436,0 2.474268,-1.28364 0.235644,-0.24805 0.458886,-0.24805 0.372071,0 0.372071,0.41548 z m -4.160987,-1.09761 q 0.979785,-0.19844 1.723926,-0.83716 0.750342,-0.63872 0.750342,-1.15962 0,-0.20463 -0.117822,-0.34106 -0.111622,-0.14263 -0.291455,-0.14263 -0.539502,0 -1.196827,0.79375 -0.657324,0.79375 -0.868164,1.68672 z" />
    <path
       inkscape:connector-curvature="0"
       id="path2811"
       style="font-style:normal;font-variant:normal;font-weight:bold;font-stretch:normal;font-size:12.69999981px;line-height:1.25;font-family:'Segoe Print';-inkscape-font-specification:'Segoe Print Bold';letter-spacing:0px;word-spacing:0px;fill:#ffffff;fill-opacity:1;stroke:#000000;stroke-width:0.26458332;stroke-opacity:1"
       d="m 58.309384,227.03784 q -0.10542,0.43408 -0.21084,1.31465 l -0.297656,2.43706 q -0.07441,0.59531 -0.291455,0.82475 -0.21084,0.22945 -0.520899,0.22945 -0.279052,0 -0.5333,-0.21084 -0.248047,-0.20464 -0.248047,-0.45889 0,-0.50229 0.155029,-1.15962 0.923975,-3.6897 1.010791,-7.65845 v -0.12402 q 0,-0.83096 0.04341,-1.10381 0.04961,-0.27905 0.266651,-0.48989 0.223242,-0.21084 0.626318,-0.21084 0.675928,0 0.675928,1.0356 0,0.42167 -0.15503,1.43247 l -0.06201,0.42788 q 0.706933,-1.17823 1.680517,-1.95337 0.973584,-0.78135 1.742529,-0.78135 0.694532,0 1.178223,0.49609 0.489893,0.4961 0.489893,1.24644 0,2.00298 -1.556495,3.64629 -1.550292,1.63711 -3.06958,1.63711 -0.719335,0 -0.923974,-0.57671 z m 3.640088,-5.04155 q -0.756543,0 -1.965772,1.47587 -1.203027,1.47588 -1.203027,2.31924 0,0.21704 0.21084,0.39068 0.217041,0.16743 0.502295,0.16743 0.787548,0 1.804541,-1.23403 1.023193,-1.24024 1.023193,-2.39366 0,-0.38447 -0.117822,-0.5519 -0.117823,-0.17363 -0.254248,-0.17363 z" />
    <path
       inkscape:connector-curvature="0"
       id="path2798"
       style="font-style:normal;font-variant:normal;font-weight:bold;font-stretch:normal;font-size:14.11111069px;line-height:1.25;font-family:'Segoe Print';-inkscape-font-specification:'Segoe Print Bold';letter-spacing:0px;word-spacing:0px;fill:#ffffff;fill-opacity:1;stroke:#000000;stroke-width:0.26458332;stroke-opacity:1"
       d="m 69.197944,231.19698 q -0.01378,0.0482 -0.110243,0.11024 -0.206705,0.13781 -0.413411,0.30317 -0.199816,0.16536 -1.005968,1.12999 -1.033529,1.22646 -1.874132,2.1084 -0.833713,0.88194 -2.8801,2.85254 l -0.716579,0.69591 q 0.647678,-0.0551 1.667426,-0.16537 1.45383,-0.15847 1.612304,-0.15847 0.496094,0 0.813043,-0.0276 0.316949,-0.0207 0.571886,-0.0207 1.998155,0 1.998155,0.97151 0,0.39275 -0.206706,0.62012 -0.199815,0.22049 -0.544325,0.22049 -0.275607,0 -0.647678,-0.0965 -0.592556,-0.15848 -1.502061,-0.15848 -0.34451,0 -2.018826,0.11024 h 0.0069 q -1.701877,0.0965 -2.239312,0.15848 -0.537435,0.062 -1.226454,0.24805 -0.537435,0.15158 -0.689019,0.15158 -0.689019,0 -0.689019,-0.68213 0,-0.55121 0.37207,-0.82682 0.916396,-0.68213 2.384006,-2.06706 1.467611,-1.39182 2.762967,-2.74919 0.206705,-0.22048 0.489203,-0.50298 1.143772,-1.14377 1.667426,-1.79834 -0.110243,0 -2.501139,0.27561 -1.508952,0.17914 -2.273763,0.17914 -0.468533,0 -0.964626,-0.11713 -0.730361,-0.32384 -0.730361,-0.81304 0,-0.22738 0.282498,-0.52366 0.282498,-0.29628 0.461643,-0.29628 0.130914,0 0.344509,0.0758 0.213596,0.0827 0.323839,0.0827 l 1.274686,0.0138 q 0.523654,0.007 1.150662,-0.0482 0.461642,-0.0413 1.4745,-0.0896 1.136882,-0.0551 1.557184,-0.13092 1.267795,-0.21359 1.598524,-0.21359 0.571886,0 0.571886,0.61322 0,0.34451 -0.151585,0.565 z" />
    <path
       inkscape:connector-curvature="0"
       id="path2800"
       style="font-style:normal;font-variant:normal;font-weight:bold;font-stretch:normal;font-size:14.11111069px;line-height:1.25;font-family:'Segoe Print';-inkscape-font-specification:'Segoe Print Bold';letter-spacing:0px;word-spacing:0px;fill:#ffffff;fill-opacity:1;stroke:#000000;stroke-width:0.26458332;stroke-opacity:1"
       d="m 76.908067,237.59797 q 0,0.71658 -1.205783,1.71565 -1.205783,0.99219 -2.721625,0.99219 -1.164443,0 -1.832791,-0.73036 -0.668349,-0.73725 -0.668349,-2.04639 0,-1.92925 1.364258,-3.61735 1.364258,-1.68809 2.914551,-1.68809 0.771701,0 1.240234,0.4892 0.468533,0.4892 0.468533,1.16444 0,1.1989 -1.150662,2.28755 -1.150661,1.08176 -2.949001,1.49517 -0.206706,0.0482 -0.206706,0.24804 0,0.33073 0.289388,0.6339 0.296278,0.29628 0.785482,0.29628 1.384928,0 2.749186,-1.42627 0.261827,-0.27561 0.509874,-0.27561 0.413411,0 0.413411,0.46165 z m -4.623318,-1.21957 q 1.088651,-0.22048 1.915474,-0.93017 0.833713,-0.70969 0.833713,-1.28847 0,-0.22738 -0.130914,-0.37896 -0.124023,-0.15847 -0.323839,-0.15847 -0.599447,0 -1.329807,0.88194 -0.73036,0.88194 -0.964627,1.87413 z" />
    <path
       inkscape:connector-curvature="0"
       id="path2802"
       style="font-style:normal;font-variant:normal;font-weight:bold;font-stretch:normal;font-size:14.11111069px;line-height:1.25;font-family:'Segoe Print';-inkscape-font-specification:'Segoe Print Bold';letter-spacing:0px;word-spacing:0px;fill:#ffffff;fill-opacity:1;stroke:#000000;stroke-width:0.26458332;stroke-opacity:1"
       d="m 83.83271,238.96222 q -0.330729,-0.62011 -0.482313,-2.3151 -0.151584,-1.76389 -0.675239,-1.76389 -0.496094,0 -1.715657,1.83968 -1.219564,1.83279 -1.502062,2.70785 -0.06201,0.26182 -0.234266,0.43408 -0.165365,0.17225 -0.33073,0.17225 -1.047309,0 -1.047309,-0.95773 0,-0.32384 0.206706,-1.4745 0.268718,-1.48828 0.268718,-3.63802 0,-0.32384 0.282497,-0.68902 0.282498,-0.37207 0.599447,-0.37207 0.399631,0 0.613227,0.19981 0.213596,0.19982 0.213596,1.06109 0,0.65457 -0.392741,2.53559 1.495171,-3.50022 3.334852,-3.50022 1.598525,0 1.874132,2.51492 0.275608,2.56316 0.633898,2.56316 0.158474,0 0.36518,-0.0689 0.248047,-0.0827 0.392741,-0.0827 0.330729,0 0.330729,0.38585 0,0.3514 -0.454753,0.75103 -0.454752,0.39274 -1.143771,0.39274 -0.799262,0 -1.143772,-0.69591 z" />
    <path
       inkscape:connector-curvature="0"
       id="path2791"
       style="font-style:normal;font-variant:normal;font-weight:normal;font-stretch:normal;font-size:3.52777767px;line-height:1.25;font-family:'Segoe Print';-inkscape-font-specification:'Segoe Print';letter-spacing:0px;word-spacing:0px;fill:#ffffff;fill-opacity:1;stroke:#000000;stroke-width:0.26458332;stroke-opacity:1"
       d="m 58.671759,244.20757 q 0,-0.2291 -0.118855,-0.27905 -0.118856,-0.0517 -0.296279,-0.0517 -0.36518,0 -0.663181,0.1447 -0.296278,0.14297 -0.296278,0.34451 0,0.14469 0.130914,0.25321 0.132636,0.1068 0.575331,0.23599 0.428914,0.12402 0.609782,0.25666 0.18259,0.13091 0.18259,0.31695 0,0.18776 -0.253215,0.40652 -0.253214,0.21704 -0.611504,0.33073 -0.356568,0.11369 -0.606337,0.11369 -0.208428,0 -0.316949,-0.05 -0.106798,-0.0482 -0.106798,-0.1223 0,-0.0517 0.03101,-0.12574 0.03273,-0.0758 0.06546,-0.0758 0.03445,0 0.07062,0.0121 0.184313,0.0689 0.365181,0.0689 0.325561,0 0.690741,-0.18948 0.36518,-0.1912 0.36518,-0.35656 0,-0.0706 -0.111965,-0.13436 -0.110243,-0.0655 -0.561551,-0.20843 -0.559828,-0.17742 -0.689019,-0.34451 -0.127468,-0.16881 -0.127468,-0.35484 0,-0.35829 0.411688,-0.57706 0.411689,-0.22048 0.861274,-0.22048 0.298001,0 0.458198,0.10163 0.160197,0.0999 0.160197,0.2222 0,0.0586 -0.03617,0.17054 -0.03617,0.11196 -0.18259,0.11196 z" />
    <path
       inkscape:connector-curvature="0"
       id="path2793"
       style="font-style:normal;font-variant:normal;font-weight:normal;font-stretch:normal;font-size:3.52777767px;line-height:1.25;font-family:'Segoe Print';-inkscape-font-specification:'Segoe Print';letter-spacing:0px;word-spacing:0px;fill:#ffffff;fill-opacity:1;stroke:#000000;stroke-width:0.26458332;stroke-opacity:1"
       d="m 59.188524,243.90096 q 0.0155,-0.0982 0.06718,-0.16881 0.05168,-0.0706 0.120578,-0.0706 0.142972,0 0.196371,0.34106 0.04995,0.33245 0.65629,1.71049 0.06546,-0.11197 0.141249,-0.2291 0.342787,-0.53571 0.490926,-0.82165 0.597724,-1.11794 0.788927,-1.11794 0.130914,0 0.130914,0.14814 0,0.0258 -0.01378,0.0465 -0.01206,0.019 -0.113688,0.16536 -0.337619,0.48749 -0.647678,1.01631 -0.244601,0.41513 -0.404798,0.6649 -0.179145,0.27733 -0.211874,0.40135 -0.02067,0.0689 -0.09991,0.11197 -0.07924,0.0431 -0.189481,0.0431 -0.04651,0 -0.208428,-0.44269 -0.07235,-0.19293 -0.484036,-1.23507 -0.218763,-0.55294 -0.218763,-0.56327 z" />
    <path
       inkscape:connector-curvature="0"
       id="path2795"
       style="font-style:normal;font-variant:normal;font-weight:normal;font-stretch:normal;font-size:3.52777767px;line-height:1.25;font-family:'Segoe Print';-inkscape-font-specification:'Segoe Print';letter-spacing:0px;word-spacing:0px;fill:#ffffff;fill-opacity:1;stroke:#000000;stroke-width:0.26458332;stroke-opacity:1"
       d="m 62.034173,244.08527 q -0.09819,-0.0344 -0.09819,-0.17742 0,-0.11197 0.454753,-0.21704 0.456475,-0.1068 0.795817,-0.1068 0.375515,0 0.596002,0.15503 0.220486,0.15503 0.220486,0.41169 0,0.38068 -0.420302,0.68213 -0.418579,0.30144 -1.129991,0.44269 -0.187758,0.0379 -0.211874,0.0637 -0.02239,0.0241 -0.03617,0.30661 -0.01206,0.28078 -0.01206,0.39102 0,0.0775 -0.04995,0.13952 -0.04823,0.062 -0.113688,0.062 -0.151584,0 -0.151584,-0.20499 0,-0.11196 0.06201,-0.62356 l 0.1223,-1.02147 q 0.0052,-0.0258 0.0017,-0.14814 -0.0017,-0.1223 -0.02928,-0.15503 z m 0.35829,-0.0982 q -0.01206,0.0499 -0.02412,0.18431 -0.02412,0.23943 -0.06029,0.52882 -0.01895,0.15159 -0.03617,0.32901 0.566718,-0.0775 1.005968,-0.31695 0.43925,-0.23944 0.43925,-0.52538 0,-0.3514 -0.544325,-0.3514 -0.356568,0 -0.780313,0.15159 z" />
  </g>
</svg>
